<svg width="24" height="24" viewBox="0 0 24 24" fill="none" xmlns="http://www.w3.org/2000/svg">
<path d="M16.2112 7.99676H7.79117C7.45875 7.99627 7.133 8.08994 6.85161 8.26691C6.57023 8.44389 6.34471 8.69693 6.20117 8.99676C6.03314 9.3525 5.96842 9.74829 6.01438 10.139C6.06035 10.5298 6.21516 10.8997 6.46117 11.2068L10.6712 16.3068C10.8364 16.4974 11.0406 16.6503 11.2701 16.7551C11.4996 16.8598 11.7489 16.9141 12.0012 16.9141C12.2534 16.9141 12.5027 16.8598 12.7322 16.7551C12.9617 16.6503 13.166 16.4974 13.3312 16.3068L17.5412 11.2068C17.7872 10.8997 17.942 10.5298 17.988 10.139C18.0339 9.74829 17.9692 9.3525 17.8012 8.99676C17.6576 8.69693 17.4321 8.44389 17.1507 8.26691C16.8693 8.08994 16.5436 7.99627 16.2112 7.99676Z" fill="#834A4A"/>
</svg>
