<svg width="20" height="20" viewBox="0 0 20 20" fill="none" xmlns="http://www.w3.org/2000/svg">
<path d="M18.9709 16.5321L17.3172 9.11649C16.7253 6.03649 13.9609 3.73649 10.6784 3.88149C9.68344 3.92462 8.79219 4.41149 8.04031 5.09462C7.28656 5.77837 6.63281 6.69212 6.09781 7.67899C5.03156 9.64149 4.36719 12.0202 4.36719 13.7496V16.9996C4.36719 18.2777 5.38531 19.3652 6.69344 19.3746C7.00557 19.3775 7.3151 19.3177 7.60369 19.1988C7.89227 19.0798 8.15403 18.9041 8.37344 18.6821C8.59099 18.9017 8.84995 19.076 9.13532 19.1949C9.42069 19.3138 9.7268 19.3749 10.0359 19.3746C10.3449 19.3743 10.6508 19.313 10.9361 19.1942C11.2214 19.0755 11.4804 18.9017 11.6984 18.6827C11.916 18.9023 12.175 19.0764 12.4604 19.1952C12.7458 19.314 13.0518 19.3749 13.3609 19.3746C13.6699 19.3743 13.9758 19.313 14.2611 19.1942C14.5464 19.0755 14.8054 18.9017 15.0234 18.6827C15.3504 19.0126 15.768 19.2378 16.2232 19.3298C16.6785 19.4218 17.1508 19.3764 17.5801 19.1994C18.0095 19.0223 18.3766 18.7216 18.6347 18.3355C18.8928 17.9494 19.0303 17.4953 19.0297 17.0309V17.0152L19.0291 16.9996C19.0228 16.8424 19.0034 16.6861 18.9709 16.5321Z" fill="#9B9B9B"/>
<path d="M5.81261 10.4105L6.30011 10.6543C6.69386 10.848 6.94386 11.2543 6.94386 11.698V13.123H4.88761L1.89824 12.2805C1.85421 12.1521 1.85708 12.0121 1.90636 11.8855L2.08761 11.4355C2.3397 10.8089 2.75273 10.2598 3.28498 9.8439C3.81722 9.42798 4.44983 9.15992 5.11886 9.0668C5.40011 9.0293 5.64386 9.2418 5.64386 9.52305V10.1418C5.64386 10.2543 5.71261 10.3605 5.81261 10.4105Z" fill="#F9C23C"/>
<path d="M2.08906 12.5672C2.68906 13.1734 3.86406 13.7484 4.88906 13.7484H6.94531V12.9609L6.62656 12.2734H1.89844C1.92969 12.3797 2.00156 12.4797 2.08906 12.5672Z" fill="#FFB02E"/>
<path d="M12.949 7.4125V7.1375C12.5109 7.10267 12.086 6.97143 11.7045 6.75317C11.3231 6.53491 10.9947 6.23503 10.7427 5.875C10.3615 6.34375 9.80522 6.675 9.17397 6.75625C9.23182 7.11167 9.20963 7.47551 9.10901 7.82126C9.0084 8.16701 8.83189 8.48595 8.59236 8.75483C8.35283 9.0237 8.05631 9.23573 7.72443 9.37545C7.39256 9.51518 7.03368 9.57908 6.67397 9.5625C5.43647 9.50625 4.43022 8.49375 4.37397 7.25625C4.34975 6.71679 4.50629 6.18468 4.81877 5.74426C5.13124 5.30385 5.58178 4.98033 6.09897 4.825C6.30522 4.7625 6.44272 4.575 6.44272 4.3625V4.35625C6.44272 3.01875 7.52397 1.9375 8.86147 1.9375C9.21147 1.9375 9.54272 2.0125 9.84272 2.14375C10.3177 2.35625 10.8802 2.275 11.2802 1.9375C11.8063 1.49732 12.4693 1.25421 13.1552 1.25H13.2427C15.399 1.3 16.4177 3.94375 14.8927 5.46875L12.949 7.4125ZM5.62397 14.6875L4.99272 15.875C4.99272 16.425 4.54897 16.875 3.99272 16.875C3.28022 16.875 2.79897 16.15 3.06772 15.4875L3.54897 14.3375C3.69897 13.9813 4.04272 13.75 4.43022 13.75H4.99272L5.62397 14.6875Z" fill="#F8312F"/>
<path d="M18.3609 16.6684L16.7047 9.24338C16.1734 6.45588 13.6734 4.37463 10.7047 4.50588C7.49844 4.64338 4.99219 7.33088 4.99219 10.5371V16.9996C4.99219 17.9496 5.74844 18.7434 6.69844 18.7496C7.28594 18.7559 7.80469 18.4621 8.12344 18.0121C8.24844 17.8371 8.50469 17.8371 8.62344 18.0121C8.93594 18.4559 9.44844 18.7496 10.0359 18.7496C10.6172 18.7496 11.1359 18.4559 11.4484 18.0121C11.5734 17.8371 11.8297 17.8371 11.9484 18.0121C12.2609 18.4559 12.7734 18.7496 13.3609 18.7496C13.9422 18.7496 14.4609 18.4559 14.7734 18.0121C14.8984 17.8371 15.1547 17.8371 15.2734 18.0121C15.5859 18.4559 16.0984 18.7496 16.6859 18.7496C17.6359 18.7496 18.4047 17.9809 18.4047 17.0309C18.3984 16.9059 18.3859 16.7809 18.3609 16.6684Z" fill="white"/>
<path d="M8.4375 11.25C8.68614 11.25 8.9246 11.1512 9.10041 10.9754C9.27623 10.7996 9.375 10.5611 9.375 10.3125C9.375 10.0639 9.27623 9.8254 9.10041 9.64959C8.9246 9.47377 8.68614 9.375 8.4375 9.375C8.18886 9.375 7.9504 9.47377 7.77459 9.64959C7.59877 9.8254 7.5 10.0639 7.5 10.3125C7.5 10.5611 7.59877 10.7996 7.77459 10.9754C7.9504 11.1512 8.18886 11.25 8.4375 11.25Z" fill="#212121"/>
</svg>
