<svg width="20" height="20" viewBox="0 0 20 20" fill="none" xmlns="http://www.w3.org/2000/svg">
<path d="M9.91204 0.703136C14.862 0.692199 17.9855 8.74376 16.7527 13.8469C15.662 18.3656 12.5292 19.3016 10.0214 19.3016C7.51361 19.3016 4.46829 18.0859 3.29017 14.0219C1.92767 9.31564 5.29329 0.714074 9.91204 0.703136Z" fill="#F2A05B"/>
<path d="M6.1365 4.53917C5.54275 5.48761 4.94431 6.68136 4.81619 7.67667C4.58181 9.50949 5.93025 9.71573 6.40056 8.80636C6.87088 7.89699 7.35213 6.97667 8.11619 5.75636C9.17244 4.07042 10.9021 2.94073 10.0521 2.20792C9.20213 1.47511 7.38338 2.54542 6.1365 4.53917Z" fill="#FECC88"/>
<path d="M14.2844 7.12812C14.4587 7.12812 14.6 6.98402 14.6 6.80625C14.6 6.62848 14.4587 6.48438 14.2844 6.48438C14.1101 6.48438 13.9688 6.62848 13.9688 6.80625C13.9688 6.98402 14.1101 7.12812 14.2844 7.12812Z" fill="#D47858"/>
<path d="M14.6352 14.8255C14.7071 14.6507 14.6243 14.451 14.4503 14.3795C14.2764 14.3079 14.0771 14.3916 14.0052 14.5663C13.9333 14.7411 14.016 14.9408 14.19 15.0124C14.364 15.0839 14.5633 15.0003 14.6352 14.8255Z" fill="#D47858"/>
<path d="M5.43739 16.1977C5.50435 16.0349 5.42666 15.8486 5.26385 15.7817C5.10104 15.7147 4.91478 15.7924 4.84781 15.9552C4.78085 16.118 4.85854 16.3043 5.02135 16.3713C5.18416 16.4382 5.37042 16.3605 5.43739 16.1977Z" fill="#D47858"/>
<path d="M15.4547 10.1534C15.6899 10.0316 15.7937 9.76504 15.6865 9.55817C15.5793 9.3513 15.3017 9.28241 15.0665 9.4043C14.8313 9.52619 14.7275 9.7927 14.8347 9.99957C14.9419 10.2064 15.2195 10.2753 15.4547 10.1534Z" fill="#D47858"/>
<path d="M10.9 14.3409C11.1353 14.2191 11.239 13.9525 11.1318 13.7457C11.0246 13.5388 10.7471 13.4699 10.5118 13.5918C10.2766 13.7137 10.1728 13.9802 10.28 14.1871C10.3872 14.3939 10.6648 14.4628 10.9 14.3409Z" fill="#D47858"/>
<path d="M10.4509 16.5612C10.6247 16.3433 10.6179 16.0488 10.4357 15.9036C10.2536 15.7583 9.96502 15.8172 9.79123 16.0351C9.61745 16.253 9.62423 16.5475 9.80639 16.6927C9.98856 16.838 10.2771 16.7791 10.4509 16.5612Z" fill="#D47858"/>
<path d="M8.59377 17.0817C8.79906 16.8509 8.7846 16.5029 8.56147 16.3045C8.33835 16.1061 7.99105 16.1324 7.78577 16.3632C7.58048 16.5941 7.59494 16.9421 7.81806 17.1405C8.04119 17.3389 8.38849 17.3126 8.59377 17.0817Z" fill="#D47858"/>
</svg>
