<svg width="18" height="18" viewBox="0 0 18 18" fill="none" xmlns="http://www.w3.org/2000/svg">
<path fill-rule="evenodd" clip-rule="evenodd" d="M16.0948 4.06151C16.1661 4.16966 16.1978 4.29909 16.1847 4.42795C16.1716 4.5568 16.1144 4.67718 16.0228 4.76876L9.12808 11.6628C9.05755 11.7332 8.96954 11.7837 8.87308 11.809L6.00133 12.559C5.90641 12.5838 5.80665 12.5833 5.71198 12.5576C5.6173 12.5319 5.531 12.4818 5.46163 12.4125C5.39226 12.3431 5.34224 12.2568 5.31653 12.1621C5.29082 12.0674 5.29032 11.9677 5.31508 11.8728L6.06508 9.00176C6.08751 8.91578 6.12875 8.83585 6.18583 8.76776L13.1061 1.85201C13.2116 1.74667 13.3545 1.6875 13.5036 1.6875C13.6526 1.6875 13.7956 1.74667 13.9011 1.85201L16.0228 3.97301C16.049 4.00063 16.0731 4.03022 16.0948 4.06151ZM14.8296 4.37051L13.5036 3.04526L7.11508 9.43376L6.64633 11.2285L8.44108 10.7598L14.8296 4.37051Z" fill="#834A4A"/>
<path d="M14.7337 12.8691C14.9387 11.117 15.0041 9.35149 14.9294 7.58908C14.9277 7.54754 14.9346 7.50609 14.9497 7.46736C14.9648 7.42863 14.9878 7.39346 15.0172 7.36408L15.7552 6.62608C15.7754 6.6058 15.801 6.59177 15.8289 6.58569C15.8568 6.5796 15.886 6.58172 15.9127 6.59178C15.9395 6.60184 15.9628 6.61941 15.9798 6.6424C15.9968 6.66538 16.0069 6.69279 16.0087 6.72133C16.1472 8.81477 16.0945 10.9165 15.8512 13.0003C15.6742 14.5168 14.4562 15.7056 12.9464 15.8743C10.3254 16.1644 7.68044 16.1644 5.05944 15.8743C3.55044 15.7056 2.33169 14.5168 2.15469 13.0003C1.84427 10.3419 1.84427 7.6563 2.15469 4.99783C2.33169 3.48133 3.54969 2.29258 5.05944 2.12383C7.04878 1.90412 9.05297 1.85068 11.0512 1.96408C11.0798 1.96613 11.1072 1.97634 11.1302 1.99349C11.1531 2.01064 11.1707 2.03401 11.1808 2.06085C11.1909 2.08768 11.1931 2.11684 11.1872 2.14489C11.1812 2.17293 11.1673 2.19868 11.1472 2.21908L10.4024 2.96308C10.3733 2.99222 10.3385 3.01504 10.3002 3.03014C10.2619 3.04524 10.2209 3.05228 10.1797 3.05083C8.51226 2.99372 6.84288 3.05764 5.18469 3.24208C4.70015 3.29571 4.24783 3.51112 3.90081 3.85352C3.55378 4.19592 3.33232 4.6453 3.27219 5.12908C2.97133 7.70031 2.97133 10.2979 3.27219 12.8691C3.33232 13.3529 3.55378 13.8022 3.90081 14.1446C4.24783 14.487 4.70015 14.7024 5.18469 14.7561C7.70094 15.0373 10.3049 15.0373 12.8219 14.7561C13.3065 14.7024 13.7588 14.487 14.1058 14.1446C14.4528 13.8022 14.6736 13.3529 14.7337 12.8691Z" fill="#834A4A"/>
</svg>
