<svg width="20" height="20" viewBox="0 0 20 20" fill="none" xmlns="http://www.w3.org/2000/svg">
<path d="M17.0807 1.66406H2.91406C2.22371 1.66406 1.66406 2.22371 1.66406 2.91406V17.0807C1.66406 17.7711 2.22371 18.3307 2.91406 18.3307H17.0807C17.7711 18.3307 18.3307 17.7711 18.3307 17.0807V2.91406C18.3307 2.22371 17.7711 1.66406 17.0807 1.66406Z" fill="#2F88FF" stroke="black" stroke-linejoin="round"/>
<path d="M5 7.9375C6.38537 6.27083 8.05204 5.4375 10 5.4375C11.948 5.4375 13.6146 6.27083 15 7.9375" stroke="white" stroke-width="2" stroke-linecap="round"/>
<path d="M10 12.9141C10.6904 12.9141 11.25 12.3544 11.25 11.6641C11.25 10.9737 10.6904 10.4141 10 10.4141C9.30962 10.4141 8.75 10.9737 8.75 11.6641C8.75 12.3544 9.30962 12.9141 10 12.9141Z" fill="white"/>
<path d="M7.91406 8.75L10.0009 11.6667" stroke="white" stroke-width="2" stroke-linecap="round"/>
</svg>
